<svg width="94" height="39" viewBox="0 0 94 39" fill="none" xmlns="http://www.w3.org/2000/svg">
<g clip-path="url(#clip0_44_369)">
<path fill-rule="evenodd" clip-rule="evenodd" d="M54.4312 20.6275V0H62.8194C66.7142 0 68.9831 2.14195 68.9831 5.67917C68.9831 7.50435 68.6136 8.89209 67.0542 10.0536C67.8535 10.482 68.5145 11.1371 68.9577 11.9399C69.4009 12.7427 69.6073 13.6591 69.5522 14.5788C69.5522 18.2518 67.0837 20.6125 63.2481 20.6125H60.92C60.5909 19.1227 60.5909 17.5769 60.92 16.0872H62.7529C62.9943 16.11 63.2377 16.0786 63.4661 15.9953C63.6944 15.9119 63.9021 15.7787 64.0746 15.6048C64.2471 15.4309 64.3802 15.2206 64.4647 14.9886C64.5492 14.7567 64.5829 14.5087 64.5636 14.262C64.5823 14.0169 64.5479 13.7705 64.4628 13.5404C64.3776 13.3103 64.2439 13.1022 64.0711 12.9309C63.8982 12.7595 63.6905 12.6291 63.4627 12.5489C63.2348 12.4688 62.9925 12.4408 62.7529 12.467H60.92C60.5726 10.9794 60.5726 9.42937 60.92 7.94179H62.4942C62.728 7.9762 62.9665 7.95671 63.1919 7.88476C63.4174 7.8128 63.6242 7.69022 63.7972 7.526C63.9702 7.36179 64.1049 7.16011 64.1915 6.9358C64.278 6.71148 64.3143 6.47022 64.2975 6.22974C64.3131 5.98987 64.276 5.74947 64.1889 5.5261C64.1018 5.30273 63.967 5.10204 63.7941 4.93868C63.6213 4.77532 63.4149 4.65343 63.19 4.5819C62.9651 4.51037 62.7274 4.49101 62.4942 4.52524H59.3976V20.6275C57.7611 20.9896 56.0676 20.9896 54.4312 20.6275ZM37.396 33.6753V38.8718H35.881V27.1514H38.9554C39.5016 27.1028 40.0515 27.1815 40.5636 27.3814C41.0757 27.5812 41.5366 27.8972 41.9116 28.3054C42.3755 28.9082 42.6162 29.6586 42.5916 30.4247C42.6019 31.1421 42.3366 31.8351 41.8525 32.3554C41.5421 32.6944 41.157 32.9529 40.7291 33.1096L40.7809 33.1549C41.0334 33.4518 41.238 33.7879 41.3869 34.1505L43.4415 38.8718H41.749L39.9088 34.5577C39.8065 34.3213 39.6553 34.1103 39.4654 33.9393C39.1948 33.7489 38.8697 33.656 38.5416 33.6753H37.396ZM47.8684 28.5316V32.1141H51.9849V33.5169H47.8684V37.469H52.4727V38.8718H46.3386V27.1514H52.1771V28.5618L47.8684 28.5316ZM57.1804 31.4429L57.5943 31.6842L58.459 32.1744C58.8655 32.4007 59.272 32.642 59.6563 32.9286C59.9231 33.1136 60.1707 33.3259 60.3953 33.5622C60.6994 33.8713 60.9398 34.2394 61.1023 34.6449C61.2648 35.0503 61.346 35.4848 61.3413 35.9228C61.3462 36.6007 61.1099 37.2573 60.6762 37.7706C60.2587 38.2041 59.7531 38.5388 59.1951 38.7513C58.6371 38.9637 58.0402 39.0486 57.4465 39C56.5243 39.0011 55.6106 38.8192 54.7563 38.4645L54.5938 38.4042L54.6898 36.843L55.0002 36.9938C55.3878 37.1751 55.7911 37.319 56.2049 37.4237C56.5848 37.5344 56.9775 37.5927 57.3726 37.5972C57.8879 37.603 58.3964 37.4759 58.8507 37.2276C59.0973 37.1053 59.304 36.9128 59.4456 36.6732C59.5873 36.4336 59.6579 36.1573 59.6489 35.8776C59.663 35.6193 59.6235 35.3608 59.5331 35.1191C59.4427 34.8774 59.3033 34.6578 59.1241 34.4748L58.8876 34.2787L58.5033 34.0222C58.119 33.7809 57.7199 33.5546 57.3209 33.3435C56.9218 33.1323 56.5818 32.9437 56.2566 32.7175C56.0176 32.5706 55.7925 32.4015 55.5841 32.2121C55.2946 31.934 55.0654 31.5969 54.9114 31.2228C54.7574 30.8487 54.6819 30.4458 54.6898 30.04C54.6625 29.2882 54.9282 28.5559 55.4289 28.0037C55.8226 27.6438 56.2834 27.3688 56.7838 27.1951C57.2841 27.0214 57.8137 26.9527 58.3408 26.993C59.1801 26.9946 60.0137 27.1346 60.8092 27.4079L61.0013 27.4757L60.787 28.9841L60.4988 28.8559C60.151 28.6961 59.7865 28.5772 59.4124 28.5014C59.0597 28.4286 58.7006 28.3933 58.3408 28.3959C58.0298 28.3633 57.7157 28.3982 57.4189 28.4983C57.1221 28.5984 56.8495 28.7614 56.6188 28.9766C56.3912 29.2781 56.276 29.6523 56.2936 30.0325C56.3153 30.325 56.4095 30.6072 56.5672 30.8525C56.7249 31.0979 56.9409 31.2984 57.1952 31.4353L57.1804 31.4429ZM73.9717 33.0116C74.058 34.6268 73.5283 36.2134 72.4936 37.4388C71.4986 38.436 70.1597 38.9948 68.7651 38.9948C67.3705 38.9948 66.0316 38.436 65.0366 37.4388C63.9987 36.2123 63.4686 34.622 63.5585 33.0041C63.5085 31.5048 63.9622 30.0332 64.8444 28.8333C65.3349 28.2539 65.942 27.7891 66.6242 27.4705C67.3065 27.1519 68.048 26.987 68.7983 26.987C69.5486 26.987 70.2902 27.1519 70.9724 27.4705C71.6547 27.7891 72.2617 28.2539 72.7523 28.8333C73.6329 30.0336 74.0841 31.5056 74.0308 33.0041L73.9717 33.0116ZM78.2656 33.6753V38.8718H76.7505V27.1514H79.8176C80.3638 27.1028 80.9137 27.1815 81.4258 27.3814C81.9379 27.5812 82.3988 27.8972 82.7738 28.3054C83.2377 28.9082 83.4784 29.6586 83.4537 30.4247C83.4641 31.1421 83.1988 31.8351 82.7147 32.3554C82.4043 32.6944 82.0192 32.9529 81.5913 33.1096L81.6431 33.1549C81.9002 33.4582 82.1074 33.802 82.2565 34.1731L84.311 38.8944H82.6408L80.7636 34.5803C80.6694 34.3489 80.5312 34.1387 80.3571 33.9619C80.0865 33.7715 79.7614 33.6787 79.4333 33.6979L78.2656 33.6753ZM90.7112 28.5316V38.8718H89.1888V28.5316H85.8852V27.1514H94.0148V28.5618L90.7112 28.5316ZM37.396 28.5316V32.3027H38.6894C39.2953 32.3068 39.8817 32.0841 40.3374 31.6767C40.534 31.5248 40.6935 31.3288 40.8037 31.1038C40.914 30.8788 40.9719 30.631 40.973 30.3794C40.9946 29.9135 40.8502 29.4554 40.5666 29.0897C40.3696 28.8829 40.1304 28.723 39.866 28.6213C39.6016 28.5196 39.3184 28.4787 39.0367 28.5014L37.396 28.5316ZM72.3753 33.0116C72.451 31.7274 72.038 30.463 71.2224 29.4819C70.9084 29.129 70.5231 28.8499 70.0931 28.6637C69.6631 28.4775 69.1987 28.3887 68.7318 28.4034C68.2653 28.3912 67.8016 28.4811 67.372 28.6672C66.9423 28.8532 66.5568 29.131 66.2412 29.4819C65.429 30.4649 65.0165 31.7279 65.0883 33.0116C65.0103 34.2915 65.4238 35.5522 66.2412 36.5262C66.5574 36.8757 66.9433 37.1522 67.3729 37.3369C67.8025 37.5216 68.2658 37.6104 68.7318 37.5972C69.1974 37.6075 69.6599 37.5174 70.0891 37.3328C70.5182 37.1483 70.9044 36.8734 71.2224 36.5262C72.0344 35.5494 72.4449 34.2901 72.368 33.0116H72.3753ZM78.2878 28.5316V32.3027H79.5811C80.1794 32.3236 80.7649 32.1227 81.2292 31.737C81.4248 31.5848 81.5832 31.3885 81.6922 31.1635C81.8011 30.9384 81.8577 30.6908 81.8574 30.4398C81.8811 29.9748 81.7393 29.5168 81.4583 29.1501C81.2602 28.9426 81.0198 28.7824 80.7541 28.6807C80.4883 28.579 80.2039 28.5384 79.9211 28.5618L78.2878 28.5316ZM2.58668 31.4429L3.00055 31.6842L3.86524 32.1744C4.27172 32.4007 4.6782 32.642 5.0625 32.9286C5.32766 33.1159 5.57509 33.328 5.80156 33.5622C6.09637 33.8799 6.32655 34.2541 6.47877 34.6632C6.631 35.0723 6.70225 35.5081 6.68842 35.9455C6.69129 36.6243 6.45227 37.281 6.01588 37.7933C5.59982 38.2266 5.09555 38.5613 4.53874 38.7737C3.98192 38.9861 3.38617 39.0711 2.79362 39.0226C1.88986 39.0086 0.996967 38.8192 0.162591 38.4645L0 38.4193L0.118248 36.843L0.42865 36.9938C0.816657 37.1739 1.21986 37.3178 1.6333 37.4237C2.01341 37.5335 2.40601 37.5918 2.80101 37.5972C3.33109 37.6087 3.85523 37.4815 4.32345 37.2276C4.56892 37.1038 4.77453 36.9109 4.91598 36.6717C5.05742 36.4325 5.12879 36.1569 5.12163 35.8776C5.13049 35.6165 5.08501 35.3565 4.98819 35.1147C4.89137 34.8729 4.74542 34.6548 4.55995 34.4748L4.32345 34.2787L3.93915 34.0222C3.55484 33.7809 3.15575 33.5546 2.75666 33.3435C2.35758 33.1323 2.01761 32.9437 1.69243 32.7175C1.45465 32.5687 1.22966 32.3997 1.01989 32.2121C0.722933 31.9379 0.486377 31.6025 0.325854 31.2281C0.16533 30.8536 0.084494 30.4487 0.0886862 30.04C0.0613381 29.2882 0.327092 28.5559 0.827738 28.0037C1.22164 27.6442 1.68251 27.3694 2.18282 27.1957C2.68312 27.0221 3.2126 26.9531 3.7396 26.993C4.58137 26.9945 5.41738 27.1346 6.21543 27.4079L6.40019 27.4757L6.18586 28.9841L5.91241 28.8635C5.55754 28.702 5.18553 28.5831 4.80384 28.509C4.4512 28.4359 4.09205 28.4005 3.73221 28.4034C3.42129 28.3709 3.10714 28.4058 2.81037 28.5059C2.5136 28.606 2.24092 28.7689 2.01022 28.9841C1.78269 29.2857 1.66745 29.6599 1.68504 30.04C1.70681 30.3326 1.80094 30.6147 1.95863 30.8601C2.11631 31.1054 2.3324 31.3059 2.58668 31.4429ZM11.1375 34.1127V38.8718H9.60767V27.1514H12.7117C13.184 27.1295 13.6559 27.2035 14.0999 27.3693C14.544 27.535 14.9514 27.7891 15.2984 28.1168C15.9133 28.8102 16.2538 29.712 16.2538 30.6472C16.2538 31.5823 15.9133 32.4841 15.2984 33.1775C14.9514 33.5052 14.544 33.7593 14.0999 33.9251C13.6559 34.0908 13.184 34.1648 12.7117 34.1429L11.1375 34.1127ZM25.756 35.7645H20.4274L19.2153 38.8718H17.5673L22.1716 27.1514H23.8418L28.6974 38.902H27.0271L25.756 35.7946V35.7645ZM11.1375 28.5316V32.7024H12.5195C13.1066 32.7441 13.6867 32.5522 14.1381 32.1669C14.321 31.9642 14.4629 31.7266 14.5555 31.4677C14.6481 31.2088 14.6896 30.9338 14.6776 30.6585C14.6995 30.3704 14.6585 30.0809 14.5575 29.8109C14.4565 29.541 14.2981 29.2972 14.0937 29.0973C13.6502 28.7302 13.09 28.5423 12.5195 28.5693L11.1375 28.5316ZM25.1795 34.3616L23.1693 29.5649L22.9993 29.0973L22.8219 29.5649L20.9521 34.3616H25.1795ZM42.1777 14.3903C41.8741 14.0332 41.6249 13.6314 41.4386 13.1986C41.2805 12.7955 41.1978 12.3657 41.1947 11.9315C41.193 11.5419 41.2756 11.1567 41.4365 10.8034C41.5975 10.4501 41.8329 10.1374 42.126 9.88764C42.7322 9.33069 43.5281 9.03828 44.3431 9.0731C45.1689 9.03278 45.9807 9.30091 46.6268 9.82731C46.9125 10.0679 47.1413 10.3713 47.2962 10.7147C47.451 11.0582 47.5279 11.4329 47.521 11.8109C47.5252 12.3816 47.3631 12.9407 47.0554 13.4173C46.6829 13.9622 46.2081 14.4261 45.6586 14.7824L47.5949 17.1129C47.7203 16.9581 47.827 16.7884 47.9127 16.6076C47.9866 16.4568 48.0458 16.2984 48.1123 16.14L48.3783 15.3858V15.333C49.0927 15.2865 49.8013 15.4885 50.3886 15.9062V15.959C50.2684 16.5106 50.0822 17.0451 49.8343 17.5504C49.6064 18.0129 49.318 18.4417 48.977 18.825L50.5881 20.7784C49.5737 21.0128 48.5207 21.0128 47.5062 20.7784L47.0185 20.3636C46.5498 20.6308 46.0542 20.8458 45.5404 21.0046C45.0449 21.1465 44.5325 21.2176 44.0179 21.2158C42.969 21.258 41.9403 20.9125 41.1208 20.2429C40.7624 19.9487 40.4743 19.5751 40.2784 19.1504C40.0825 18.7257 39.9839 18.2611 39.9901 17.7917C39.9785 17.1161 40.1693 16.4531 40.537 15.8911C40.9847 15.2751 41.5536 14.7613 42.2072 14.3827L42.1777 14.3903ZM45.6217 18.6364L43.6041 16.0872C43.2852 16.2324 43.0061 16.4551 42.7911 16.7358C42.6026 16.9892 42.5037 17.3002 42.5103 17.6183C42.505 17.8088 42.5421 17.9981 42.6189 18.1718C42.6958 18.3456 42.8102 18.4993 42.9537 18.6213C43.2898 18.891 43.7089 19.03 44.1362 19.0135C44.3856 19.0123 44.6338 18.9794 44.8752 18.9155C45.1415 18.8383 45.4031 18.7452 45.6586 18.6364H45.6217ZM44.2323 13.1835C44.5528 13.0169 44.8408 12.792 45.0822 12.5198C45.2621 12.3108 45.3641 12.0438 45.3704 11.7656C45.3726 11.6493 45.3514 11.5337 45.3082 11.4261C45.265 11.3184 45.2006 11.2209 45.1191 11.1396C45.0347 11.0545 44.9341 10.9878 44.8235 10.9437C44.713 10.8996 44.5948 10.879 44.4761 10.8832C44.2185 10.8736 43.9672 10.9654 43.774 11.1396C43.6863 11.2216 43.617 11.322 43.571 11.434C43.5251 11.546 43.5036 11.6669 43.508 11.7882C43.5161 12.0225 43.5822 12.2508 43.7001 12.4519C43.8533 12.726 44.0395 12.9794 44.2544 13.2061L44.2323 13.1835ZM25.0169 20.6275V0H37.4108C37.4921 0.43744 37.5512 0.844711 37.5882 1.22936C37.6289 1.58734 37.6487 1.94749 37.6473 2.30787C37.6365 3.10032 37.5574 3.89026 37.4108 4.66854H30.2272V7.91162H35.8884C36.051 8.67779 36.1401 9.45831 36.1544 10.2421C36.1418 11.0385 36.0527 11.8317 35.8884 12.6103H30.2272V20.6275C28.5142 20.9709 26.7521 20.9709 25.0391 20.6275H25.0169Z" fill="#929292"/>
</g>
<defs>
<clipPath id="clip0_44_369">
<rect width="94" height="39" fill="white"/>
</clipPath>
</defs>
</svg>
