<svg width="79" height="61" viewBox="0 0 79 61" fill="none" xmlns="http://www.w3.org/2000/svg">
<g clip-path="url(#clip0_44_335)">
<path fill-rule="evenodd" clip-rule="evenodd" d="M60.4105 10.5933L49.7661 19.2109L39.2286 10.5933L28.6912 19.2109L18.1538 10.5933L6.4082 20.4255L7.61641 21.8016L18.1538 13.1839L28.6912 21.8016L39.2286 13.1839L49.7661 21.8016L60.4105 13.1839L71.055 21.8016L72.4467 20.2333L60.4105 10.5933Z" fill="#929292"/>
<path fill-rule="evenodd" clip-rule="evenodd" d="M60.4105 5.29663L49.7661 13.9143L39.2286 5.29663L28.6912 13.9143L18.1538 5.29663L6.4082 15.1289L7.61641 16.5126L18.1538 7.88731L28.6912 16.5126L39.2286 7.88731L49.7661 16.5126L60.4105 7.88731L71.055 16.5126L72.4467 14.9367L60.4105 5.29663Z" fill="#929292"/>
<path fill-rule="evenodd" clip-rule="evenodd" d="M60.4105 0L49.7661 8.61764L39.2286 0L28.6912 8.61764L18.1538 0L6.4082 9.83226L7.61641 11.216L18.1538 2.59836L28.6912 11.216L39.2286 2.59836L49.7661 11.216L60.4105 2.59836L71.055 11.216L72.4467 9.64008L60.4105 0Z" fill="#929292"/>
<path d="M61.8405 20.8406H59.2559V23.4389H61.8405V20.8406Z" fill="#929292"/>
<path d="M40.7116 20.8406H38.127V23.4389H40.7116V20.8406Z" fill="#929292"/>
<path d="M19.5837 20.8406H16.999V23.4389H19.5837V20.8406Z" fill="#929292"/>
<path fill-rule="evenodd" clip-rule="evenodd" d="M22.6042 45.6713H20.7766V32.4181H19.1172V30.5654H27.6282V35.5008L25.8541 39.4214L28.5229 45.6713H26.5423L24.1871 40.1286H22.6042V45.6713ZM22.6042 38.2913H24.47L25.8694 35.4854V32.4104H22.6042V38.2913Z" fill="#929292"/>
<path fill-rule="evenodd" clip-rule="evenodd" d="M37.8219 35.9159L35.0614 41.0204H32.6067V45.6329H30.7791V32.4335H29.0586V30.5654H37.776L37.8219 35.9467V35.9159ZM33.9985 39.1831L35.8567 35.9236V32.395H32.645V39.2061L33.9985 39.1831Z" fill="#929292"/>
<path fill-rule="evenodd" clip-rule="evenodd" d="M49.9948 32.195H48.519L48.4425 33.7863H46.959V30.5422H54.9041V33.7863H53.3977L53.3365 32.195H51.8224V45.6712H49.9948V32.195Z" fill="#929292"/>
<path fill-rule="evenodd" clip-rule="evenodd" d="M57.6961 42.7116L57.6655 43.9569H60.2043L61.3895 42.7116V40.3054L55.9908 35.1394V32.7179L58.1396 30.4578H63.0719L63.0948 32.7179V33.7557H61.2825V33.4636L61.229 32.2797H58.8967L57.7955 33.4636V34.1939L63.1713 39.3598V43.4342L60.9613 45.7789H55.9679L55.8838 43.4342V40.782H57.6961V42.7116Z" fill="#929292"/>
<path fill-rule="evenodd" clip-rule="evenodd" d="M74.2207 45.6712V43.9953H75.6966V32.8254V32.3565V32.2181H74.236V30.5422H79V32.2181H77.5242V43.9953H79V45.6712H74.2207Z" fill="#929292"/>
<path fill-rule="evenodd" clip-rule="evenodd" d="M10.0098 32.4333V30.5959H7.731V30.6036H7.34866L4.48108 35.6082H3.51757V30.6036H0V32.4409H1.69761L1.68996 33.0406V45.6711H3.51757V37.5915H4.48108L7.81512 45.6711H9.8186L6.06398 36.5307L8.34276 32.4333H10.0098Z" fill="#929292"/>
<path fill-rule="evenodd" clip-rule="evenodd" d="M70.2515 36.992H69.288L71.4291 32.4333H72.7367V30.596H70.4579V30.6037H70.2744L67.101 36.9843H66.4433V30.4346H64.5928V32.441H64.6157V32.5794V33.0406V45.6711H66.4433V38.8139L68.7374 38.8216L70.7332 45.6711H72.7444L70.2515 36.992Z" fill="#929292"/>
<path fill-rule="evenodd" clip-rule="evenodd" d="M17.1056 30.5654H11.5693V32.4335H13.2822L13.1904 33.0024L11.3398 45.6713H13.1904L13.7639 41.743H16.8991L17.4879 45.6713H19.3308L17.1056 30.5654ZM14.0468 39.9057L15.148 32.395H15.5303L16.6544 39.9057H14.0468Z" fill="#929292"/>
<path fill-rule="evenodd" clip-rule="evenodd" d="M44.9256 30.5654H39.4199V32.395H41.1098L41.0104 33.01L39.8634 40.8897H37.9746V42.7116H39.6034L39.1675 45.679H41.0104L41.4386 42.7577H44.8568L45.308 45.679H47.1509L44.9256 30.5654ZM41.6986 40.9128L42.9604 32.395H43.3427L44.5968 40.9128H41.6986Z" fill="#929292"/>
<path fill-rule="evenodd" clip-rule="evenodd" d="M6.35416 60.8617H7.88354V58.0866H10.6747V60.8617H12.204V53.943H10.6747V56.6798H7.86825V53.943H6.33887V60.8617H6.35416ZM17.1822 60.9847C17.6635 61.0072 18.1444 60.9312 18.5957 60.7615C19.047 60.5918 19.4594 60.3318 19.8079 59.9973C20.1564 59.6628 20.4338 59.2607 20.6234 58.8154C20.8129 58.37 20.9106 57.8906 20.9106 57.4062C20.9106 56.9218 20.8129 56.4424 20.6234 55.9971C20.4338 55.5517 20.1564 55.1496 19.8079 54.8151C19.4594 54.4806 19.047 54.2206 18.5957 54.0509C18.1444 53.8812 17.6635 53.8053 17.1822 53.8277C16.7008 53.8053 16.22 53.8812 15.7686 54.0509C15.3173 54.2206 14.9049 54.4806 14.5564 54.8151C14.2079 55.1496 13.9305 55.5517 13.7409 55.9971C13.5514 56.4424 13.4537 56.9218 13.4537 57.4062C13.4537 57.8906 13.5514 58.37 13.7409 58.8154C13.9305 59.2607 14.2079 59.6628 14.5564 59.9973C14.9049 60.3318 15.3173 60.5918 15.7686 60.7615C16.22 60.9312 16.7008 61.0072 17.1822 60.9847ZM17.1822 59.5779C16.9015 59.5781 16.6236 59.5214 16.3652 59.4111C16.1068 59.3009 15.8732 59.1394 15.6783 58.9363C15.4834 58.7332 15.3313 58.4927 15.231 58.2291C15.1307 57.9656 15.0843 57.6844 15.0946 57.4024C15.0811 57.1215 15.1245 56.8408 15.2222 56.5773C15.32 56.3139 15.4699 56.0731 15.663 55.8697C15.8561 55.6662 16.0882 55.5043 16.3454 55.3938C16.6027 55.2833 16.8795 55.2265 17.1592 55.2268C17.4396 55.2277 17.717 55.2851 17.9749 55.3958C18.2328 55.5064 18.466 55.6679 18.6607 55.8708C18.8553 56.0737 19.0075 56.3137 19.1082 56.5768C19.2089 56.8399 19.256 57.1206 19.2468 57.4024C19.2603 57.6832 19.2168 57.9639 19.1191 58.2274C19.0214 58.4909 18.8715 58.7316 18.6784 58.9351C18.4853 59.1385 18.2531 59.3004 17.9959 59.4109C17.7387 59.5214 17.4619 59.5783 17.1822 59.5779ZM23.4985 60.8617H25.0279V55.3498H27.1231V53.943H21.4109V55.3498H23.5061V60.8617H23.4985ZM28.2778 60.8617H33.5159V59.5087H29.8225V58.0558H33.0647V56.7028H29.8225V55.296H33.493V53.943H28.2931V60.8617H28.2778ZM34.8847 60.8617H39.8246V59.478H36.4217V53.943H34.8924V60.8617H34.8847ZM48.5573 61.0001L49.6738 60.2314L48.6797 59.1936C49.0153 58.7278 49.3193 58.2398 49.5897 57.7329L48.4732 57.1179C48.2591 57.5484 48.0297 57.9482 47.8079 58.3095L46.8903 57.387C47.2946 57.2863 47.6549 57.055 47.9159 56.7287C48.177 56.4024 48.3244 55.999 48.3356 55.5805C48.3345 55.3333 48.2823 55.0891 48.1823 54.8633C48.0824 54.6375 47.9368 54.4351 47.7549 54.2688C47.573 54.1026 47.3587 53.9762 47.1256 53.8976C46.8925 53.819 46.6457 53.79 46.4009 53.8123C46.1452 53.7891 45.8874 53.8188 45.6436 53.8996C45.3997 53.9803 45.1748 54.1104 44.9828 54.2818C44.7908 54.4532 44.6358 54.6623 44.5272 54.8962C44.4186 55.1301 44.3589 55.3839 44.3516 55.6419C44.3543 56.1501 44.5206 56.6436 44.8257 57.0488C44.4341 57.1855 44.0951 57.4423 43.8564 57.7829C43.6177 58.1235 43.4914 58.5309 43.4951 58.9476C43.4951 60.1929 44.4892 60.9617 45.7892 60.9617C46.5293 60.9546 47.2425 60.682 47.8003 60.1929L48.565 60.9617L48.5573 61.0001ZM46.0797 56.5952C45.8393 56.3722 45.6964 56.0627 45.6821 55.7342C45.6722 55.6414 45.6823 55.5476 45.7114 55.4591C45.7406 55.3706 45.7884 55.2893 45.8514 55.2209C45.9144 55.1524 45.9913 55.0983 46.0768 55.0622C46.1624 55.0261 46.2546 55.0089 46.3474 55.0116C46.4335 55.006 46.5198 55.0189 46.6007 55.0493C46.6815 55.0797 46.7551 55.1269 46.8165 55.1879C46.8778 55.2489 46.9257 55.3222 46.9569 55.4031C46.9881 55.484 47.0019 55.5707 46.9974 55.6573C46.9974 56.1109 46.6839 56.3646 46.0797 56.5952ZM45.9268 59.7163C45.8101 59.7313 45.6915 59.7219 45.5785 59.6887C45.4656 59.6556 45.3606 59.5994 45.2702 59.5237C45.1798 59.4479 45.1059 59.3543 45.0531 59.2485C45.0003 59.1428 44.9697 59.0273 44.9633 58.9091C44.9677 58.7088 45.03 58.5141 45.1427 58.3489C45.2555 58.1837 45.4137 58.0551 45.598 57.9789L46.9209 59.3242C46.6425 59.563 46.2925 59.701 45.9268 59.7163ZM56.2042 60.9617C57.7336 60.9617 58.7353 60.1929 58.7353 58.8169C58.7353 57.5946 57.9707 57.0872 56.5483 56.7259C55.3631 56.4184 55.0648 56.2646 55.0648 55.8111C55.0648 55.3575 55.3707 55.1884 55.9519 55.1884C56.6031 55.2307 57.2267 55.4691 57.7413 55.8726L58.5059 54.7271C57.7929 54.137 56.8984 53.8137 55.9748 53.8123C54.5678 53.8123 53.5661 54.6426 53.5661 55.9033C53.5661 57.2948 54.4607 57.6791 55.8601 58.0327C57.0072 58.3326 57.2442 58.5324 57.2442 58.9168C57.2442 59.3012 56.8695 59.5856 56.2501 59.5856C55.4884 59.5659 54.7599 59.2681 54.2007 58.7477L53.3061 59.8239C54.1011 60.5468 55.1323 60.9516 56.2042 60.9617ZM60.0277 60.8617H61.5571V58.7861H62.7041C64.2335 58.7861 65.4876 57.9559 65.4876 56.3569C65.4876 54.927 64.4935 53.943 62.857 53.943H60.0659V60.8617H60.0277ZM61.5571 57.4331V55.3498H62.727C63.4917 55.3498 63.9582 55.7188 63.9582 56.3953C63.9582 56.5477 63.9261 56.6984 63.8638 56.8373C63.8016 56.9763 63.7108 57.1004 63.5973 57.2014C63.4838 57.3024 63.3502 57.3781 63.2055 57.4233C63.0607 57.4686 62.9081 57.4824 62.7576 57.4639L61.5571 57.4331ZM65.3805 60.8617L68.3245 53.8969H69.7239L72.645 60.8617H71.1157L70.481 59.3242H67.5752L66.9405 60.8617H65.3805ZM68.0569 57.9713H69.8922L68.9745 55.7265L68.0569 57.9713Z" fill="#929292"/>
</g>
<defs>
<clipPath id="clip0_44_335">
<rect width="79" height="61" fill="white"/>
</clipPath>
</defs>
</svg>
