<svg width="45" height="45" viewBox="0 0 45 45" fill="none" xmlns="http://www.w3.org/2000/svg">
<path d="M22.5 3.75C18.7916 3.75 15.1665 4.84967 12.0831 6.90994C8.99964 8.97022 6.59641 11.8986 5.17727 15.3247C3.75812 18.7508 3.38681 22.5208 4.11028 26.1579C4.83376 29.7951 6.61952 33.136 9.24176 35.7583C11.864 38.3805 15.2049 40.1663 18.8421 40.8897C22.4792 41.6132 26.2492 41.2419 29.6753 39.8227C33.1014 38.4036 36.0298 36.0004 38.0901 32.9169C40.1503 29.8335 41.25 26.2084 41.25 22.5C41.25 20.0377 40.765 17.5995 39.8228 15.3247C38.8805 13.0498 37.4994 10.9828 35.7583 9.24175C34.0172 7.50065 31.9502 6.11953 29.6753 5.17726C27.4005 4.23498 24.9623 3.75 22.5 3.75ZM22.5 37.5C19.5333 37.5 16.6332 36.6203 14.1665 34.972C11.6997 33.3238 9.77713 30.9811 8.64182 28.2403C7.5065 25.4994 7.20945 22.4834 7.78823 19.5736C8.36701 16.6639 9.79562 13.9912 11.8934 11.8934C13.9912 9.79561 16.6639 8.367 19.5737 7.78822C22.4834 7.20944 25.4994 7.50649 28.2403 8.64181C30.9812 9.77712 33.3238 11.6997 34.972 14.1664C36.6203 16.6332 37.5 19.5333 37.5 22.5C37.5 26.4782 35.9197 30.2936 33.1066 33.1066C30.2936 35.9196 26.4783 37.5 22.5 37.5Z" fill="black"/>
<path d="M27.5814 17.4186C27.4071 17.2429 27.1997 17.1034 26.9712 17.0082C26.7427 16.913 26.4977 16.864 26.2501 16.864C26.0026 16.864 25.7575 16.913 25.529 17.0082C25.3006 17.1034 25.0932 17.2429 24.9189 17.4186L22.5001 19.8561L20.0814 17.4186C19.7283 17.0656 19.2494 16.8672 18.7501 16.8672C18.2508 16.8672 17.7719 17.0656 17.4189 17.4186C17.0658 17.7717 16.8675 18.2506 16.8675 18.7499C16.8675 19.2492 17.0658 19.7281 17.4189 20.0811L19.8564 22.4999L17.4189 24.9186C17.2431 25.0929 17.1037 25.3003 17.0085 25.5288C16.9133 25.7573 16.8643 26.0024 16.8643 26.2499C16.8643 26.4974 16.9133 26.7425 17.0085 26.971C17.1037 27.1995 17.2431 27.4068 17.4189 27.5811C17.5932 27.7569 17.8006 27.8964 18.029 27.9916C18.2575 28.0867 18.5026 28.1358 18.7501 28.1358C18.9977 28.1358 19.2427 28.0867 19.4712 27.9916C19.6997 27.8964 19.9071 27.7569 20.0814 27.5811L22.5001 25.1436L24.9189 27.5811C25.0932 27.7569 25.3006 27.8964 25.529 27.9916C25.7575 28.0867 26.0026 28.1358 26.2501 28.1358C26.4977 28.1358 26.7427 28.0867 26.9712 27.9916C27.1997 27.8964 27.4071 27.7569 27.5814 27.5811C27.7571 27.4068 27.8966 27.1995 27.9918 26.971C28.087 26.7425 28.136 26.4974 28.136 26.2499C28.136 26.0024 28.087 25.7573 27.9918 25.5288C27.8966 25.3003 27.7571 25.0929 27.5814 24.9186L25.1439 22.4999L27.5814 20.0811C27.7571 19.9068 27.8966 19.6995 27.9918 19.471C28.087 19.2425 28.136 18.9974 28.136 18.7499C28.136 18.5024 28.087 18.2573 27.9918 18.0288C27.8966 17.8003 27.7571 17.5929 27.5814 17.4186Z" fill="black"/>
</svg>
