<svg width="138" height="220" viewBox="0 0 138 220" fill="none" xmlns="http://www.w3.org/2000/svg">
<path d="M137.361 109.5L117.398 109.5L88.1545 40.0574L77.4819 65.4274L97.0214 109.5H78.4503L68.7462 86.3589L58.9109 109.5L40.3297 109.5L59.8793 65.4274L49.2067 40.0574L19.9631 109.5H0L48.5107 0L68.7462 45.4643L88.8505 0L137.361 109.5Z" fill="#E1AD66"/>
<path d="M88.8505 219.453L68.7462 173.989L48.5107 219.453L0 109.954H19.953L49.2067 179.396L59.8793 154.036L40.3297 109.954L58.9008 109.954L68.7462 133.105L78.4503 109.954H97.0214L77.4819 154.036L88.1545 179.396L117.398 109.954L137.361 109.954L88.8505 219.453Z" fill="#1A3F2B"/>
</svg>
