<svg width="47" height="76" viewBox="0 0 47 76" fill="none" xmlns="http://www.w3.org/2000/svg">
<path d="M47 37.4668H40.1693L30.1633 13.7062L26.5115 22.3869L33.1972 37.4668H26.8428L23.5224 29.5489L20.1572 37.4668H13.7994L20.4885 22.3869L16.8367 13.7062L6.83065 37.4668H0L16.5986 0L23.5224 15.5562L30.4014 0L47 37.4668Z" fill="#E1AD66"/>
<path d="M30.4014 75.0888L23.5224 59.5326L16.5986 75.0888L0 37.6221H6.8272L16.8367 61.3827L20.4885 52.7054L13.7994 37.6221H20.1537L23.5224 45.5434L26.8428 37.6221H33.1972L26.5115 52.7054L30.1633 61.3827L40.1693 37.6221H47L30.4014 75.0888Z" fill="#1A3F2B"/>
</svg>
