<svg width="101" height="162" viewBox="0 0 101 162" fill="none" xmlns="http://www.w3.org/2000/svg">
<path d="M101 80.5137H86.3214L64.8189 29.4537L56.9715 48.108L71.3386 80.5137H57.6836L50.5482 63.4986L43.3164 80.5137H29.654L44.0285 48.108L36.1811 29.4537L14.6786 80.5137H0L35.6693 0L50.5482 33.4293L65.3307 0L101 80.5137Z" fill="white"/>
<path d="M65.3307 161.361L50.5482 127.932L35.6693 161.361L0 80.8475H14.6712L36.1811 131.908L44.0285 113.261L29.654 80.8475H43.309L50.5482 97.87L57.6836 80.8475H71.3386L56.9715 113.261L64.8189 131.908L86.3214 80.8475H101L65.3307 161.361Z" fill="#E1AD66"/>
</svg>
