<svg width="27" height="27" viewBox="0 0 27 27" fill="none" xmlns="http://www.w3.org/2000/svg">
<path d="M13.4993 0C8.33296 0 4.12988 4.20369 4.12988 9.3702C4.12988 14.3434 12.6309 25.9626 12.9929 26.4546L13.3307 26.9144C13.3702 26.9684 13.4331 27 13.4993 27C13.5665 27 13.629 26.9684 13.669 26.9144L14.0066 26.4546C14.3687 25.9626 22.8696 14.3434 22.8696 9.3702C22.8696 4.20369 18.6658 0 13.4993 0ZM13.4993 6.01381C15.3505 6.01381 16.8557 7.51914 16.8557 9.3702C16.8557 11.2203 15.3504 12.7266 13.4993 12.7266C11.6493 12.7266 10.1429 11.2203 10.1429 9.3702C10.1429 7.51914 11.6492 6.01381 13.4993 6.01381Z" fill="#E1AD66"/>
</svg>
