<svg width="24" height="23" viewBox="0 0 24 23" fill="none" xmlns="http://www.w3.org/2000/svg">
<path d="M20.71 18.29L17.31 14.9C18.407 13.5025 19.0022 11.7767 19 10C19 8.41775 18.5308 6.87103 17.6518 5.55544C16.7727 4.23985 15.5233 3.21447 14.0615 2.60897C12.5997 2.00347 10.9911 1.84504 9.43928 2.15372C7.88743 2.4624 6.46197 3.22433 5.34315 4.34315C4.22433 5.46197 3.4624 6.88743 3.15372 8.43928C2.84504 9.99113 3.00347 11.5997 3.60897 13.0615C4.21447 14.5233 5.23985 15.7727 6.55544 16.6518C7.87103 17.5308 9.41775 18 11 18C12.7767 18.0022 14.5025 17.407 15.9 16.31L19.29 19.71C19.383 19.8037 19.4936 19.8781 19.6154 19.9289C19.7373 19.9797 19.868 20.0058 20 20.0058C20.132 20.0058 20.2627 19.9797 20.3846 19.9289C20.5064 19.8781 20.617 19.8037 20.71 19.71C20.8037 19.617 20.8781 19.5064 20.9289 19.3846C20.9797 19.2627 21.0058 19.132 21.0058 19C21.0058 18.868 20.9797 18.7373 20.9289 18.6154C20.8781 18.4936 20.8037 18.383 20.71 18.29ZM5 10C5 8.81332 5.3519 7.65328 6.01119 6.66658C6.67047 5.67989 7.60755 4.91085 8.7039 4.45673C9.80026 4.0026 11.0067 3.88378 12.1705 4.11529C13.3344 4.3468 14.4035 4.91825 15.2426 5.75736C16.0818 6.59648 16.6532 7.66558 16.8847 8.82946C17.1162 9.99335 16.9974 11.1997 16.5433 12.2961C16.0892 13.3925 15.3201 14.3295 14.3334 14.9888C13.3467 15.6481 12.1867 16 11 16C9.4087 16 7.88258 15.3679 6.75736 14.2426C5.63214 13.1174 5 11.5913 5 10Z" fill="#E1AD66"/>
</svg>
