<?xml version="1.0" encoding="utf-8"?>
<!-- Generator: Adobe Illustrator 22.0.1, SVG Export Plug-In . SVG Version: 6.00 Build 0)  -->
<svg version="1.1" id="Шар_1" xmlns="http://www.w3.org/2000/svg" xmlns:xlink="http://www.w3.org/1999/xlink" x="0px" y="0px"
	 viewBox="0 0 30.9 48" style="enable-background:new 0 0 30.9 48;" xml:space="preserve">
<style type="text/css">
	.st0{fill:#173F2A;}
	.st1{fill:#E0AC66;}
</style>
<g>
	<polygon class="st0" points="20,47.9 15.6,38 11.1,47.9 0.5,23.9 4.9,23.9 11.3,39.1 13.6,33.6 9.3,23.9 13.4,23.9 15.6,29 
		17.7,23.9 21.8,23.9 17.5,33.6 19.8,39.1 26.2,23.9 30.6,23.9 	"/>
	<polygon class="st1" points="30.6,24 26.2,24 19.8,8.7 17.5,14.3 21.8,24 17.7,24 15.6,18.9 13.4,24 9.3,24 13.6,14.3 11.3,8.7 
		4.9,24 0.5,24 11.1,-0.1 15.6,9.9 20,-0.1 	"/>
</g>
</svg>
