<?xml version="1.0" encoding="utf-8"?>
<!-- Generator: Adobe Illustrator 22.0.1, SVG Export Plug-In . SVG Version: 6.00 Build 0)  -->
<svg version="1.1" id="Шар_1" xmlns="http://www.w3.org/2000/svg" xmlns:xlink="http://www.w3.org/1999/xlink" x="0px" y="0px"
	 viewBox="0 0 1450.4 927" style="enable-background:new 0 0 1450.4 927;" xml:space="preserve">
<style type="text/css">
	.st0{fill:#FFFFFF;}
	.st1{fill:#173F2A;}
	.st2{fill:#E1AD66;}
	.st3{fill-rule:evenodd;clip-rule:evenodd;fill:#FFFFFF;}
	.st4{fill-rule:evenodd;clip-rule:evenodd;fill:none;stroke:#FFFFFF;stroke-miterlimit:10;stroke-dasharray:6;}
	.st5{fill-rule:evenodd;clip-rule:evenodd;fill:#E1AD66;}
	.st6{fill-rule:evenodd;clip-rule:evenodd;fill:#173F2A;}
</style>
<g>
	<g>
		<polygon class="st2" points="93.3,432.9 0,432.9 0,371.6 247.4,371.6 247.4,432.9 154.6,432.9 154.6,734.5 93.3,734.5 		"/>
		<polygon class="st2" points="585.2,744 516.9,589.4 448.1,744 283.1,371.6 351,371.6 450.5,607.8 486.7,521.5 420.3,371.6 
			483.4,371.6 516.9,450.3 549.9,371.6 613.1,371.6 546.6,521.5 582.9,607.8 682.3,371.6 750.2,371.6 		"/>
		<rect x="784.6" y="371.6" class="st2" width="61.3" height="362.9"/>
		<polygon class="st2" points="956,511.6 956,734.5 894.7,734.5 894.7,362.2 1112.9,595.5 1112.9,371.6 1174.2,371.6 1174.2,744.9 
					"/>
		<path class="st2" d="M1219.9,655.8l55.6-25c8,29.7,31.6,47.6,60.3,47.6c32.1,0,53.3-22.1,53.3-51.4c0-72.6-149.9-53.7-149.9-164
			c0-59.9,44.3-96.2,99-96.2c47.1,0,84.8,27.3,98.5,67.9l-55.2,25.5c-5.2-22.6-20.3-35.8-41.9-35.8c-23.6,0-39.6,15.6-39.6,36.8
			c0,64.6,150.3,49,150.3,166.8c0,66.9-49,111.2-112.6,111.2C1281.2,739.3,1234.5,704.4,1219.9,655.8"/>
		<polygon class="st0" points="750.2,372.3 682.3,372.3 582.9,136.2 546.6,222.5 613.1,372.3 549.9,372.3 516.9,293.6 483.4,372.3 
			420.3,372.3 486.8,222.5 450.5,136.2 351,372.3 283.1,372.3 448.1,0 516.9,154.6 585.2,0 		"/>
	</g>
	<g>
		<path class="st0" d="M348.4,861.2h11v27h23.7v-27h11v65h-11v-27h-23.7v27h-11V861.2z"/>
		<path class="st0" d="M527.2,893.7c0-18.7,15.2-33.3,33.3-33.3c18.7,0,33.3,15.2,33.3,33.3c0,18.7-15.2,33.3-33.3,33.3
			C541.8,927,527.2,911.8,527.2,893.7z M582.9,893.7c0-12.2-9.9-22.4-22.4-22.4c-12.2,0-22.4,9.9-22.4,22.4
			c0,12.2,9.9,22.4,22.4,22.4C572.8,916.1,582.9,906.2,582.9,893.7z"/>
		<path class="st0" d="M734.1,872.2h-16.7v-11h44.3v11h-16.6v54h-11V872.2z"/>
		<path class="st0" d="M892.7,861.2h40.5v11h-29.5v16h26.2v11h-26.2v16h29.5v11h-40.5V861.2z"/>
		<path class="st0" d="M1066.5,861.2h11v54h24.5v11h-35.5V861.2z"/>
	</g>
</g>
</svg>
